<mxfile host="app.diagrams.net" modified="2023-09-01T17:11:55.785Z" agent="Mozilla/5.0 (Macintosh; Intel Mac OS X 10_15_7) AppleWebKit/537.36 (KHTML, like Gecko) Chrome/116.0.0.0 Safari/537.36" etag="-Bs-M4QZ0CYPVSmtqfmr" version="21.7.1" type="github">
  <diagram name="Page-1" id="kltpETyp6ktUoRGK4CSb">
    <mxGraphModel dx="1425" dy="840" grid="1" gridSize="10" guides="1" tooltips="1" connect="1" arrows="1" fold="1" page="1" pageScale="1" pageWidth="827" pageHeight="1169" math="0" shadow="0">
      <root>
        <mxCell id="0" />
        <mxCell id="1" parent="0" />
        <mxCell id="Djlz9z2rldyBYHnzBLkq-1" value="" style="rounded=0;whiteSpace=wrap;html=1;sketch=1;hachureGap=4;jiggle=2;curveFitting=1;fontFamily=Architects Daughter;fontSource=https%3A%2F%2Ffonts.googleapis.com%2Fcss%3Ffamily%3DArchitects%2BDaughter;fontSize=20;fillColor=#ffe6cc;strokeColor=#d79b00;" vertex="1" parent="1">
          <mxGeometry x="80" y="80" width="760" height="520" as="geometry" />
        </mxCell>
        <mxCell id="Djlz9z2rldyBYHnzBLkq-2" value="&lt;font face=&quot;Comic Sans MS&quot;&gt;compiler&lt;/font&gt;" style="text;html=1;strokeColor=none;fillColor=none;align=center;verticalAlign=middle;whiteSpace=wrap;rounded=0;fontSize=20;fontFamily=Architects Daughter;" vertex="1" parent="1">
          <mxGeometry x="384" y="100" width="60" height="30" as="geometry" />
        </mxCell>
        <mxCell id="Djlz9z2rldyBYHnzBLkq-43" style="edgeStyle=orthogonalEdgeStyle;rounded=0;sketch=1;hachureGap=4;jiggle=2;curveFitting=1;orthogonalLoop=1;jettySize=auto;html=1;exitX=0.5;exitY=0;exitDx=0;exitDy=0;entryX=0.5;entryY=0;entryDx=0;entryDy=0;fontFamily=Architects Daughter;fontSource=https%3A%2F%2Ffonts.googleapis.com%2Fcss%3Ffamily%3DArchitects%2BDaughter;fontSize=16;" edge="1" parent="1" source="Djlz9z2rldyBYHnzBLkq-3" target="Djlz9z2rldyBYHnzBLkq-38">
          <mxGeometry relative="1" as="geometry" />
        </mxCell>
        <mxCell id="Djlz9z2rldyBYHnzBLkq-44" value="&lt;font face=&quot;Comic Sans MS&quot;&gt;register&lt;/font&gt;" style="edgeLabel;html=1;align=center;verticalAlign=middle;resizable=0;points=[];fontSize=20;fontFamily=Architects Daughter;" vertex="1" connectable="0" parent="Djlz9z2rldyBYHnzBLkq-43">
          <mxGeometry x="-0.1682" relative="1" as="geometry">
            <mxPoint x="-52" as="offset" />
          </mxGeometry>
        </mxCell>
        <mxCell id="Djlz9z2rldyBYHnzBLkq-3" value="" style="rounded=0;whiteSpace=wrap;html=1;sketch=1;hachureGap=4;jiggle=2;curveFitting=1;fontFamily=Architects Daughter;fontSource=https%3A%2F%2Ffonts.googleapis.com%2Fcss%3Ffamily%3DArchitects%2BDaughter;fontSize=20;fillColor=#dae8fc;strokeColor=#6c8ebf;" vertex="1" parent="1">
          <mxGeometry x="278.75" y="170" width="271.25" height="370" as="geometry" />
        </mxCell>
        <mxCell id="Djlz9z2rldyBYHnzBLkq-4" value="&lt;font face=&quot;Comic Sans MS&quot;&gt;plugins&lt;/font&gt;" style="text;html=1;strokeColor=none;fillColor=none;align=center;verticalAlign=middle;whiteSpace=wrap;rounded=0;fontSize=20;fontFamily=Architects Daughter;" vertex="1" parent="1">
          <mxGeometry x="384" y="180" width="60" height="30" as="geometry" />
        </mxCell>
        <mxCell id="Djlz9z2rldyBYHnzBLkq-31" style="edgeStyle=orthogonalEdgeStyle;rounded=0;sketch=1;hachureGap=4;jiggle=2;curveFitting=1;orthogonalLoop=1;jettySize=auto;html=1;exitX=1;exitY=0.5;exitDx=0;exitDy=0;fontFamily=Architects Daughter;fontSource=https%3A%2F%2Ffonts.googleapis.com%2Fcss%3Ffamily%3DArchitects%2BDaughter;fontSize=16;" edge="1" parent="1" source="Djlz9z2rldyBYHnzBLkq-5" target="Djlz9z2rldyBYHnzBLkq-25">
          <mxGeometry relative="1" as="geometry" />
        </mxCell>
        <mxCell id="Djlz9z2rldyBYHnzBLkq-35" value="&lt;font style=&quot;font-size: 14px;&quot; face=&quot;Comic Sans MS&quot;&gt;register&lt;/font&gt;" style="edgeLabel;html=1;align=center;verticalAlign=middle;resizable=0;points=[];fontSize=20;fontFamily=Architects Daughter;" vertex="1" connectable="0" parent="Djlz9z2rldyBYHnzBLkq-31">
          <mxGeometry x="-0.0934" y="1" relative="1" as="geometry">
            <mxPoint as="offset" />
          </mxGeometry>
        </mxCell>
        <mxCell id="Djlz9z2rldyBYHnzBLkq-5" value="&lt;font face=&quot;Comic Sans MS&quot;&gt;transfrom plugin&lt;/font&gt;" style="rounded=0;whiteSpace=wrap;html=1;sketch=1;hachureGap=4;jiggle=2;curveFitting=1;fontFamily=Architects Daughter;fontSource=https%3A%2F%2Ffonts.googleapis.com%2Fcss%3Ffamily%3DArchitects%2BDaughter;fontSize=20;fillColor=#fad9d5;strokeColor=#ae4132;" vertex="1" parent="1">
          <mxGeometry x="315.5" y="244.5" width="197" height="47" as="geometry" />
        </mxCell>
        <mxCell id="Djlz9z2rldyBYHnzBLkq-32" style="edgeStyle=orthogonalEdgeStyle;rounded=0;sketch=1;hachureGap=4;jiggle=2;curveFitting=1;orthogonalLoop=1;jettySize=auto;html=1;exitX=1;exitY=0.5;exitDx=0;exitDy=0;entryX=0;entryY=0.5;entryDx=0;entryDy=0;fontFamily=Architects Daughter;fontSource=https%3A%2F%2Ffonts.googleapis.com%2Fcss%3Ffamily%3DArchitects%2BDaughter;fontSize=16;" edge="1" parent="1" source="Djlz9z2rldyBYHnzBLkq-6" target="Djlz9z2rldyBYHnzBLkq-27">
          <mxGeometry relative="1" as="geometry" />
        </mxCell>
        <mxCell id="Djlz9z2rldyBYHnzBLkq-36" value="&lt;font style=&quot;font-size: 14px;&quot; face=&quot;Comic Sans MS&quot;&gt;register&lt;/font&gt;" style="edgeLabel;html=1;align=center;verticalAlign=middle;resizable=0;points=[];fontSize=20;fontFamily=Architects Daughter;" vertex="1" connectable="0" parent="Djlz9z2rldyBYHnzBLkq-32">
          <mxGeometry x="-0.2623" y="-2" relative="1" as="geometry">
            <mxPoint x="11" y="-2" as="offset" />
          </mxGeometry>
        </mxCell>
        <mxCell id="Djlz9z2rldyBYHnzBLkq-6" value="&lt;font face=&quot;Comic Sans MS&quot;&gt;compile-module plugin&lt;br&gt;&lt;/font&gt;" style="rounded=0;whiteSpace=wrap;html=1;sketch=1;hachureGap=4;jiggle=2;curveFitting=1;fontFamily=Architects Daughter;fontSource=https%3A%2F%2Ffonts.googleapis.com%2Fcss%3Ffamily%3DArchitects%2BDaughter;fontSize=20;fillColor=#fad9d5;strokeColor=#ae4132;" vertex="1" parent="1">
          <mxGeometry x="290" y="343" width="247" height="44" as="geometry" />
        </mxCell>
        <mxCell id="Djlz9z2rldyBYHnzBLkq-33" style="edgeStyle=orthogonalEdgeStyle;rounded=0;sketch=1;hachureGap=4;jiggle=2;curveFitting=1;orthogonalLoop=1;jettySize=auto;html=1;exitX=1;exitY=0.5;exitDx=0;exitDy=0;fontFamily=Architects Daughter;fontSource=https%3A%2F%2Ffonts.googleapis.com%2Fcss%3Ffamily%3DArchitects%2BDaughter;fontSize=16;" edge="1" parent="1" source="Djlz9z2rldyBYHnzBLkq-7" target="Djlz9z2rldyBYHnzBLkq-29">
          <mxGeometry relative="1" as="geometry" />
        </mxCell>
        <mxCell id="Djlz9z2rldyBYHnzBLkq-37" value="&lt;font face=&quot;Comic Sans MS&quot; style=&quot;font-size: 14px;&quot;&gt;register&lt;/font&gt;" style="edgeLabel;html=1;align=center;verticalAlign=middle;resizable=0;points=[];fontSize=20;fontFamily=Architects Daughter;" vertex="1" connectable="0" parent="Djlz9z2rldyBYHnzBLkq-33">
          <mxGeometry x="-0.2194" relative="1" as="geometry">
            <mxPoint x="1" as="offset" />
          </mxGeometry>
        </mxCell>
        <mxCell id="Djlz9z2rldyBYHnzBLkq-7" value="&lt;font face=&quot;Comic Sans MS&quot;&gt;emit plugin&lt;br&gt;&lt;/font&gt;" style="rounded=0;whiteSpace=wrap;html=1;sketch=1;hachureGap=4;jiggle=2;curveFitting=1;fontFamily=Architects Daughter;fontSource=https%3A%2F%2Ffonts.googleapis.com%2Fcss%3Ffamily%3DArchitects%2BDaughter;fontSize=20;fillColor=#fad9d5;strokeColor=#ae4132;" vertex="1" parent="1">
          <mxGeometry x="313" y="435" width="201.5" height="40" as="geometry" />
        </mxCell>
        <mxCell id="Djlz9z2rldyBYHnzBLkq-8" value="" style="rounded=0;whiteSpace=wrap;html=1;sketch=1;hachureGap=4;jiggle=2;curveFitting=1;fontFamily=Architects Daughter;fontSource=https%3A%2F%2Ffonts.googleapis.com%2Fcss%3Ffamily%3DArchitects%2BDaughter;fontSize=20;fillColor=#dae8fc;strokeColor=#6c8ebf;" vertex="1" parent="1">
          <mxGeometry x="590" y="170" width="220" height="370" as="geometry" />
        </mxCell>
        <mxCell id="Djlz9z2rldyBYHnzBLkq-9" value="&lt;font face=&quot;Comic Sans MS&quot;&gt;hooks&lt;/font&gt;" style="text;html=1;strokeColor=none;fillColor=none;align=center;verticalAlign=middle;whiteSpace=wrap;rounded=0;fontSize=20;fontFamily=Architects Daughter;" vertex="1" parent="1">
          <mxGeometry x="670" y="180" width="60" height="30" as="geometry" />
        </mxCell>
        <mxCell id="Djlz9z2rldyBYHnzBLkq-24" value="&lt;font color=&quot;#ff8000&quot; face=&quot;Comic Sans MS&quot;&gt;before-transform&lt;/font&gt;" style="text;html=1;strokeColor=none;fillColor=none;align=center;verticalAlign=middle;whiteSpace=wrap;rounded=0;fontSize=20;fontFamily=Architects Daughter;" vertex="1" parent="1">
          <mxGeometry x="607.5" y="210" width="185" height="30" as="geometry" />
        </mxCell>
        <mxCell id="Djlz9z2rldyBYHnzBLkq-25" value="&lt;font color=&quot;#ff8000&quot; face=&quot;Comic Sans MS&quot;&gt;transform&lt;/font&gt;" style="text;html=1;strokeColor=none;fillColor=none;align=center;verticalAlign=middle;whiteSpace=wrap;rounded=0;fontSize=20;fontFamily=Architects Daughter;" vertex="1" parent="1">
          <mxGeometry x="643.76" y="253" width="112.5" height="30" as="geometry" />
        </mxCell>
        <mxCell id="Djlz9z2rldyBYHnzBLkq-26" value="&lt;font color=&quot;#ff8000&quot; face=&quot;Comic Sans MS&quot;&gt;before-compile&lt;/font&gt;" style="text;html=1;strokeColor=none;fillColor=none;align=center;verticalAlign=middle;whiteSpace=wrap;rounded=0;fontSize=20;fontFamily=Architects Daughter;" vertex="1" parent="1">
          <mxGeometry x="607.5" y="300" width="185" height="30" as="geometry" />
        </mxCell>
        <mxCell id="Djlz9z2rldyBYHnzBLkq-27" value="&lt;font color=&quot;#ff8000&quot; face=&quot;Comic Sans MS&quot;&gt;compile-module&lt;/font&gt;" style="text;html=1;strokeColor=none;fillColor=none;align=center;verticalAlign=middle;whiteSpace=wrap;rounded=0;fontSize=20;fontFamily=Architects Daughter;" vertex="1" parent="1">
          <mxGeometry x="623.76" y="350" width="152.5" height="30" as="geometry" />
        </mxCell>
        <mxCell id="Djlz9z2rldyBYHnzBLkq-28" value="&lt;font color=&quot;#ff8000&quot; face=&quot;Comic Sans MS&quot;&gt;before-emit&lt;/font&gt;" style="text;html=1;strokeColor=none;fillColor=none;align=center;verticalAlign=middle;whiteSpace=wrap;rounded=0;fontSize=20;fontFamily=Architects Daughter;" vertex="1" parent="1">
          <mxGeometry x="607.5" y="397" width="185" height="30" as="geometry" />
        </mxCell>
        <mxCell id="Djlz9z2rldyBYHnzBLkq-29" value="&lt;font color=&quot;#ff8000&quot; face=&quot;Comic Sans MS&quot;&gt;emit&lt;/font&gt;" style="text;html=1;strokeColor=none;fillColor=none;align=center;verticalAlign=middle;whiteSpace=wrap;rounded=0;fontSize=20;fontFamily=Architects Daughter;" vertex="1" parent="1">
          <mxGeometry x="664.38" y="440" width="71.25" height="30" as="geometry" />
        </mxCell>
        <mxCell id="Djlz9z2rldyBYHnzBLkq-30" value="&lt;font color=&quot;#ff8000&quot; face=&quot;Comic Sans MS&quot;&gt;after-emit&lt;/font&gt;" style="text;html=1;strokeColor=none;fillColor=none;align=center;verticalAlign=middle;whiteSpace=wrap;rounded=0;fontSize=20;fontFamily=Architects Daughter;" vertex="1" parent="1">
          <mxGeometry x="607.5" y="480" width="185" height="30" as="geometry" />
        </mxCell>
        <mxCell id="Djlz9z2rldyBYHnzBLkq-41" style="edgeStyle=orthogonalEdgeStyle;rounded=0;sketch=1;hachureGap=4;jiggle=2;curveFitting=1;orthogonalLoop=1;jettySize=auto;html=1;exitX=0.5;exitY=1;exitDx=0;exitDy=0;entryX=0.5;entryY=1;entryDx=0;entryDy=0;fontFamily=Architects Daughter;fontSource=https%3A%2F%2Ffonts.googleapis.com%2Fcss%3Ffamily%3DArchitects%2BDaughter;fontSize=16;" edge="1" parent="1" source="Djlz9z2rldyBYHnzBLkq-34" target="Djlz9z2rldyBYHnzBLkq-8">
          <mxGeometry relative="1" as="geometry">
            <Array as="points">
              <mxPoint x="170" y="560" />
              <mxPoint x="700" y="560" />
            </Array>
          </mxGeometry>
        </mxCell>
        <mxCell id="Djlz9z2rldyBYHnzBLkq-42" value="&lt;font face=&quot;Comic Sans MS&quot;&gt;call&lt;/font&gt;" style="edgeLabel;html=1;align=center;verticalAlign=middle;resizable=0;points=[];fontSize=20;fontFamily=Architects Daughter;" vertex="1" connectable="0" parent="Djlz9z2rldyBYHnzBLkq-41">
          <mxGeometry x="0.1216" y="-3" relative="1" as="geometry">
            <mxPoint as="offset" />
          </mxGeometry>
        </mxCell>
        <mxCell id="Djlz9z2rldyBYHnzBLkq-34" value="run" style="ellipse;whiteSpace=wrap;html=1;aspect=fixed;sketch=1;hachureGap=4;jiggle=2;curveFitting=1;fontFamily=Architects Daughter;fontSource=https%3A%2F%2Ffonts.googleapis.com%2Fcss%3Ffamily%3DArchitects%2BDaughter;fontSize=20;fillColor=#d5e8d4;strokeColor=#82b366;" vertex="1" parent="1">
          <mxGeometry x="130" y="372" width="80" height="80" as="geometry" />
        </mxCell>
        <mxCell id="Djlz9z2rldyBYHnzBLkq-38" value="init" style="ellipse;whiteSpace=wrap;html=1;aspect=fixed;sketch=1;hachureGap=4;jiggle=2;curveFitting=1;fontFamily=Architects Daughter;fontSource=https%3A%2F%2Ffonts.googleapis.com%2Fcss%3Ffamily%3DArchitects%2BDaughter;fontSize=20;fillColor=#d5e8d4;strokeColor=#82b366;" vertex="1" parent="1">
          <mxGeometry x="130" y="228" width="80" height="80" as="geometry" />
        </mxCell>
        <mxCell id="Djlz9z2rldyBYHnzBLkq-39" value="&lt;font face=&quot;Comic Sans MS&quot;&gt;other...&lt;br&gt;&lt;/font&gt;" style="rounded=0;whiteSpace=wrap;html=1;sketch=1;hachureGap=4;jiggle=2;curveFitting=1;fontFamily=Architects Daughter;fontSource=https%3A%2F%2Ffonts.googleapis.com%2Fcss%3Ffamily%3DArchitects%2BDaughter;fontSize=20;fillColor=#fad9d5;strokeColor=#ae4132;" vertex="1" parent="1">
          <mxGeometry x="314.5" y="490" width="201.5" height="40" as="geometry" />
        </mxCell>
      </root>
    </mxGraphModel>
  </diagram>
</mxfile>
